<?xml version="1.0" encoding="UTF-8" standalone="no"?><!DOCTYPE svg PUBLIC "-//W3C//DTD SVG 1.1//EN" "http://www.w3.org/Graphics/SVG/1.1/DTD/svg11.dtd"><svg width="100%" height="100%" viewBox="0 0 3184 250" version="1.1" xmlns="http://www.w3.org/2000/svg" xmlns:xlink="http://www.w3.org/1999/xlink" xml:space="preserve" xmlns:serif="http://www.serif.com/" style="fill-rule:evenodd;clip-rule:evenodd;stroke-linejoin:round;stroke-miterlimit:2;"><g id="b.des"><rect x="0" y="0" width="3183.33" height="250" style="fill:none;"/><g transform="matrix(8.34533,0,0,8.34533,-1263.93,-1064.93)"><g transform="matrix(16,0,0,16,161.44,147.731)"><path d="M0.562,-0.594c-0.017,0.001 -0.044,0.005 -0.061,0.01c0.008,0.014 0.015,0.037 0.015,0.053c-0,0.06 -0.049,0.109 -0.11,0.109c-0.015,0 -0.039,-0.006 -0.052,-0.014c-0.005,0.016 -0.009,0.043 -0.009,0.06c-0,0.121 0.098,0.219 0.218,0.219c0.121,-0 0.218,-0.098 0.218,-0.219c0,-0.12 -0.097,-0.218 -0.218,-0.218c-0,0 -0,0 -0.001,0Zm0.556,0.19c-0.106,-0.206 -0.315,-0.346 -0.556,-0.346c-0.24,0 -0.449,0.14 -0.555,0.347c-0.004,0.007 -0.007,0.02 -0.007,0.028c0,0.008 0.003,0.021 0.007,0.029c0.106,0.206 0.315,0.346 0.555,0.346c0.241,-0 0.45,-0.14 0.556,-0.347c0.004,-0.007 0.007,-0.02 0.007,-0.028c-0,-0.008 -0.003,-0.021 -0.007,-0.029Zm-0.556,0.31c-0.192,0 -0.369,-0.107 -0.464,-0.281c0.095,-0.174 0.272,-0.281 0.464,-0.281c0.193,-0 0.37,0.107 0.465,0.281c-0.095,0.174 -0.272,0.281 -0.465,0.281Z" style="fill:#282a37;fill-rule:nonzero;"/></g><g transform="matrix(16,0,0,16,191.94,147.731)"><path d="M0.579,-0.742l0,0.742l-0.068,-0l0,-0.104c-0.021,0.035 -0.049,0.062 -0.084,0.081c-0.035,0.019 -0.075,0.028 -0.119,0.028c-0.049,0 -0.094,-0.011 -0.134,-0.034c-0.04,-0.023 -0.071,-0.054 -0.094,-0.095c-0.023,-0.041 -0.034,-0.087 -0.034,-0.139c0,-0.052 0.011,-0.098 0.034,-0.139c0.023,-0.041 0.054,-0.072 0.094,-0.094c0.04,-0.023 0.085,-0.034 0.134,-0.034c0.043,0 0.081,0.009 0.116,0.026c0.034,0.018 0.062,0.044 0.084,0.078l0,-0.316l0.071,0Zm-0.265,0.684c0.037,-0 0.07,-0.009 0.1,-0.026c0.029,-0.017 0.053,-0.041 0.07,-0.072c0.017,-0.031 0.025,-0.067 0.025,-0.107c0,-0.04 -0.008,-0.076 -0.025,-0.107c-0.017,-0.031 -0.041,-0.056 -0.07,-0.073c-0.03,-0.017 -0.063,-0.025 -0.1,-0.025c-0.037,-0 -0.071,0.008 -0.1,0.025c-0.03,0.017 -0.053,0.042 -0.07,0.073c-0.017,0.031 -0.026,0.067 -0.026,0.107c0,0.04 0.009,0.076 0.026,0.107c0.017,0.031 0.04,0.055 0.07,0.072c0.029,0.017 0.063,0.026 0.1,0.026Z" style="fill:#282a37;fill-rule:nonzero;"/></g><g transform="matrix(16,0,0,16,202.788,147.731)"><path d="M0.557,-0.241l-0.44,0c0.004,0.055 0.025,0.099 0.063,0.133c0.038,0.033 0.086,0.05 0.144,0.05c0.033,-0 0.063,-0.006 0.09,-0.018c0.027,-0.011 0.051,-0.028 0.071,-0.051l0.04,0.046c-0.023,0.028 -0.053,0.049 -0.088,0.064c-0.035,0.015 -0.073,0.022 -0.115,0.022c-0.054,0 -0.102,-0.012 -0.144,-0.035c-0.041,-0.022 -0.074,-0.054 -0.097,-0.095c-0.023,-0.041 -0.035,-0.087 -0.035,-0.138c-0,-0.051 0.011,-0.097 0.033,-0.138c0.023,-0.041 0.053,-0.072 0.092,-0.095c0.039,-0.023 0.083,-0.034 0.132,-0.034c0.049,0 0.092,0.011 0.131,0.034c0.039,0.023 0.069,0.054 0.091,0.094c0.022,0.041 0.033,0.087 0.033,0.139l-0.001,0.022Zm-0.254,-0.228c-0.051,0 -0.093,0.016 -0.128,0.049c-0.034,0.032 -0.053,0.074 -0.058,0.126l0.373,0c-0.005,-0.052 -0.024,-0.094 -0.059,-0.126c-0.034,-0.033 -0.077,-0.049 -0.128,-0.049Z" style="fill:#282a37;fill-rule:nonzero;"/></g><g transform="matrix(16,0,0,16,212.452,147.731)"><path d="M0.24,0.005c-0.043,0 -0.083,-0.006 -0.122,-0.019c-0.039,-0.012 -0.07,-0.027 -0.092,-0.046l0.032,-0.056c0.022,0.017 0.05,0.031 0.083,0.042c0.033,0.011 0.068,0.017 0.104,0.017c0.048,-0 0.083,-0.008 0.107,-0.023c0.022,-0.015 0.034,-0.036 0.034,-0.063c-0,-0.019 -0.006,-0.035 -0.019,-0.046c-0.013,-0.011 -0.029,-0.019 -0.048,-0.024c-0.019,-0.006 -0.045,-0.012 -0.077,-0.017c-0.043,-0.008 -0.077,-0.016 -0.103,-0.025c-0.026,-0.008 -0.048,-0.022 -0.066,-0.042c-0.019,-0.02 -0.028,-0.048 -0.028,-0.083c0,-0.044 0.018,-0.08 0.055,-0.108c0.037,-0.028 0.088,-0.042 0.153,-0.042c0.034,0 0.068,0.005 0.102,0.014c0.034,0.009 0.062,0.02 0.084,0.035l-0.031,0.057c-0.043,-0.03 -0.095,-0.045 -0.155,-0.045c-0.045,-0 -0.08,0.008 -0.103,0.024c-0.022,0.016 -0.034,0.037 -0.034,0.063c0,0.02 0.007,0.036 0.02,0.048c0.013,0.012 0.029,0.021 0.048,0.026c0.019,0.006 0.046,0.012 0.08,0.018c0.042,0.008 0.076,0.016 0.101,0.024c0.025,0.008 0.047,0.022 0.065,0.041c0.018,0.019 0.027,0.046 0.027,0.08c0,0.046 -0.019,0.082 -0.057,0.109c-0.039,0.027 -0.092,0.041 -0.16,0.041Z" style="fill:#282a37;fill-rule:nonzero;"/></g><g transform="matrix(16,0,0,16,220.276,147.731)"><path d="M0.099,-0.526l0.071,0l0,0.526l-0.071,-0l0,-0.526Zm0.036,-0.115c-0.015,0 -0.027,-0.005 -0.037,-0.015c-0.01,-0.01 -0.015,-0.022 -0.015,-0.036c0,-0.013 0.005,-0.025 0.015,-0.035c0.01,-0.01 0.022,-0.015 0.037,-0.015c0.015,0 0.027,0.005 0.037,0.015c0.01,0.009 0.015,0.021 0.015,0.034c-0,0.015 -0.005,0.027 -0.015,0.037c-0.01,0.01 -0.022,0.015 -0.037,0.015Z" style="fill:#282a37;fill-rule:nonzero;"/></g><g transform="matrix(16,0,0,16,224.58,147.731)"><path d="M0.586,-0.526l0,0.462c0,0.089 -0.022,0.156 -0.066,0.199c-0.043,0.042 -0.109,0.064 -0.197,0.064c-0.049,-0 -0.095,-0.007 -0.139,-0.022c-0.043,-0.014 -0.079,-0.034 -0.106,-0.059l0.036,-0.054c0.025,0.023 0.056,0.04 0.093,0.053c0.036,0.013 0.074,0.019 0.114,0.019c0.067,0 0.116,-0.016 0.147,-0.047c0.031,-0.031 0.047,-0.079 0.047,-0.144l0,-0.067c-0.022,0.033 -0.051,0.059 -0.087,0.076c-0.035,0.017 -0.075,0.026 -0.118,0.026c-0.049,0 -0.094,-0.011 -0.134,-0.032c-0.041,-0.022 -0.073,-0.052 -0.095,-0.092c-0.023,-0.039 -0.035,-0.083 -0.035,-0.132c0,-0.049 0.012,-0.093 0.035,-0.132c0.023,-0.039 0.054,-0.069 0.094,-0.09c0.04,-0.021 0.085,-0.032 0.135,-0.032c0.045,0 0.085,0.009 0.121,0.027c0.036,0.018 0.065,0.044 0.087,0.078l0,-0.101l0.068,0Zm-0.269,0.443c0.038,0 0.072,-0.008 0.103,-0.024c0.031,-0.017 0.054,-0.04 0.071,-0.069c0.018,-0.029 0.026,-0.063 0.026,-0.1c0,-0.037 -0.008,-0.071 -0.026,-0.099c-0.017,-0.03 -0.04,-0.052 -0.071,-0.069c-0.03,-0.016 -0.064,-0.024 -0.103,-0.024c-0.038,0 -0.072,0.008 -0.102,0.024c-0.031,0.016 -0.054,0.039 -0.071,0.068c-0.017,0.029 -0.026,0.063 -0.026,0.1c0,0.037 0.009,0.071 0.026,0.1c0.017,0.029 0.04,0.052 0.071,0.069c0.03,0.016 0.064,0.024 0.102,0.024Z" style="fill:#282a37;fill-rule:nonzero;"/></g><g transform="matrix(16,0,0,16,235.556,147.731)"><path d="M0.367,-0.53c0.066,0 0.119,0.019 0.157,0.057c0.039,0.039 0.059,0.095 0.059,0.168l-0,0.305l-0.071,0l0,-0.298c0,-0.055 -0.014,-0.096 -0.041,-0.125c-0.027,-0.029 -0.066,-0.043 -0.117,-0.043c-0.057,0 -0.102,0.017 -0.135,0.05c-0.033,0.034 -0.049,0.081 -0.049,0.14l-0,0.276l-0.071,-0l-0,-0.526l0.068,0l-0,0.097c0.019,-0.032 0.046,-0.057 0.08,-0.075c0.035,-0.017 0.075,-0.026 0.12,-0.026Z" style="fill:#282a37;fill-rule:nonzero;"/></g><g transform="matrix(16,0,0,16,246.42,147.731)"><path d="M0.557,-0.241l-0.44,0c0.004,0.055 0.025,0.099 0.063,0.133c0.038,0.033 0.086,0.05 0.144,0.05c0.033,-0 0.063,-0.006 0.09,-0.018c0.027,-0.011 0.051,-0.028 0.071,-0.051l0.04,0.046c-0.023,0.028 -0.053,0.049 -0.088,0.064c-0.035,0.015 -0.073,0.022 -0.115,0.022c-0.054,0 -0.102,-0.012 -0.144,-0.035c-0.041,-0.022 -0.074,-0.054 -0.097,-0.095c-0.023,-0.041 -0.035,-0.087 -0.035,-0.138c-0,-0.051 0.011,-0.097 0.033,-0.138c0.023,-0.041 0.053,-0.072 0.092,-0.095c0.039,-0.023 0.083,-0.034 0.132,-0.034c0.049,0 0.092,0.011 0.131,0.034c0.039,0.023 0.069,0.054 0.091,0.094c0.022,0.041 0.033,0.087 0.033,0.139l-0.001,0.022Zm-0.254,-0.228c-0.051,0 -0.093,0.016 -0.128,0.049c-0.034,0.032 -0.053,0.074 -0.058,0.126l0.373,0c-0.005,-0.052 -0.024,-0.094 -0.059,-0.126c-0.034,-0.033 -0.077,-0.049 -0.128,-0.049Z" style="fill:#282a37;fill-rule:nonzero;"/></g><g transform="matrix(16,0,0,16,256.084,147.731)"><path d="M0.167,-0.423c0.017,-0.035 0.041,-0.062 0.074,-0.08c0.033,-0.018 0.074,-0.027 0.123,-0.027l0,0.069l-0.017,-0.001c-0.055,0 -0.099,0.017 -0.13,0.051c-0.031,0.034 -0.047,0.082 -0.047,0.143l0,0.268l-0.071,-0l0,-0.526l0.068,0l0,0.103Z" style="fill:#282a37;fill-rule:nonzero;"/></g><g transform="matrix(16,0,0,16,266.692,147.731)"><path d="M0.305,-0.842l0.065,0l-0.33,0.942l-0.065,-0l0.33,-0.942Z" style="fill:#282a37;fill-rule:nonzero;"/></g><g transform="matrix(16,0,0,16,276.244,147.731)"><path d="M0.317,0.005c-0.052,0 -0.099,-0.011 -0.14,-0.034c-0.041,-0.023 -0.073,-0.055 -0.096,-0.096c-0.023,-0.041 -0.035,-0.087 -0.035,-0.138c0,-0.051 0.012,-0.097 0.035,-0.138c0.023,-0.041 0.055,-0.072 0.097,-0.095c0.041,-0.023 0.087,-0.034 0.139,-0.034c0.045,0 0.086,0.009 0.122,0.026c0.035,0.018 0.063,0.044 0.084,0.078l-0.053,0.036c-0.017,-0.026 -0.039,-0.045 -0.066,-0.058c-0.027,-0.014 -0.056,-0.02 -0.087,-0.02c-0.038,0 -0.072,0.009 -0.103,0.026c-0.03,0.017 -0.053,0.041 -0.07,0.072c-0.017,0.031 -0.026,0.067 -0.026,0.107c0,0.041 0.009,0.077 0.026,0.108c0.017,0.031 0.04,0.055 0.071,0.072c0.03,0.017 0.064,0.025 0.102,0.025c0.031,0 0.06,-0.006 0.087,-0.019c0.027,-0.013 0.049,-0.032 0.066,-0.058l0.053,0.036c-0.021,0.034 -0.049,0.06 -0.085,0.078c-0.036,0.017 -0.076,0.026 -0.121,0.026Z" style="fill:#282a37;fill-rule:nonzero;"/></g><g transform="matrix(16,0,0,16,285.252,147.731)"><path d="M0.167,-0.423c0.017,-0.035 0.041,-0.062 0.074,-0.08c0.033,-0.018 0.074,-0.027 0.123,-0.027l0,0.069l-0.017,-0.001c-0.055,0 -0.099,0.017 -0.13,0.051c-0.031,0.034 -0.047,0.082 -0.047,0.143l0,0.268l-0.071,-0l0,-0.526l0.068,0l0,0.103Z" style="fill:#282a37;fill-rule:nonzero;"/></g><g transform="matrix(16,0,0,16,291.46,147.731)"><path d="M0.557,-0.241l-0.44,0c0.004,0.055 0.025,0.099 0.063,0.133c0.038,0.033 0.086,0.05 0.144,0.05c0.033,-0 0.063,-0.006 0.09,-0.018c0.027,-0.011 0.051,-0.028 0.071,-0.051l0.04,0.046c-0.023,0.028 -0.053,0.049 -0.088,0.064c-0.035,0.015 -0.073,0.022 -0.115,0.022c-0.054,0 -0.102,-0.012 -0.144,-0.035c-0.041,-0.022 -0.074,-0.054 -0.097,-0.095c-0.023,-0.041 -0.035,-0.087 -0.035,-0.138c-0,-0.051 0.011,-0.097 0.033,-0.138c0.023,-0.041 0.053,-0.072 0.092,-0.095c0.039,-0.023 0.083,-0.034 0.132,-0.034c0.049,0 0.092,0.011 0.131,0.034c0.039,0.023 0.069,0.054 0.091,0.094c0.022,0.041 0.033,0.087 0.033,0.139l-0.001,0.022Zm-0.254,-0.228c-0.051,0 -0.093,0.016 -0.128,0.049c-0.034,0.032 -0.053,0.074 -0.058,0.126l0.373,0c-0.005,-0.052 -0.024,-0.094 -0.059,-0.126c-0.034,-0.033 -0.077,-0.049 -0.128,-0.049Z" style="fill:#282a37;fill-rule:nonzero;"/></g><g transform="matrix(16,0,0,16,300.884,147.731)"><path d="M0.283,-0.53c0.069,0 0.121,0.017 0.158,0.051c0.037,0.035 0.055,0.086 0.055,0.153l-0,0.326l-0.068,0l-0,-0.082c-0.016,0.027 -0.04,0.049 -0.071,0.064c-0.031,0.015 -0.067,0.023 -0.11,0.023c-0.059,0 -0.105,-0.014 -0.14,-0.042c-0.035,-0.028 -0.052,-0.065 -0.052,-0.111c-0,-0.045 0.016,-0.081 0.048,-0.108c0.033,-0.027 0.084,-0.041 0.155,-0.041l0.167,0l-0,-0.032c-0,-0.045 -0.013,-0.08 -0.038,-0.103c-0.025,-0.024 -0.062,-0.036 -0.111,-0.036c-0.033,0 -0.065,0.006 -0.096,0.017c-0.031,0.011 -0.057,0.026 -0.079,0.045l-0.032,-0.053c0.027,-0.023 0.059,-0.04 0.096,-0.052c0.037,-0.013 0.077,-0.019 0.118,-0.019Zm-0.025,0.479c0.04,0 0.074,-0.009 0.103,-0.027c0.029,-0.019 0.05,-0.045 0.064,-0.08l-0,-0.086l-0.165,0c-0.09,0 -0.135,0.031 -0.135,0.094c-0,0.031 0.012,0.055 0.035,0.073c0.023,0.017 0.056,0.026 0.098,0.026Z" style="fill:#282a37;fill-rule:nonzero;"/></g><g transform="matrix(16,0,0,16,310.324,147.731)"><path d="M0.376,-0.032c-0.013,0.012 -0.03,0.021 -0.049,0.028c-0.02,0.006 -0.041,0.009 -0.062,0.009c-0.049,-0 -0.087,-0.013 -0.114,-0.04c-0.027,-0.027 -0.04,-0.064 -0.04,-0.113l-0,-0.318l-0.094,0l-0,-0.06l0.094,0l-0,-0.115l0.071,0l-0,0.115l0.16,0l0,0.06l-0.16,0l-0,0.314c0,0.031 0.008,0.055 0.023,0.072c0.016,0.016 0.039,0.024 0.068,0.024c0.015,0 0.029,-0.002 0.042,-0.007c0.014,-0.005 0.026,-0.011 0.036,-0.02l0.025,0.051Z" style="fill:#282a37;fill-rule:nonzero;"/></g><g transform="matrix(16,0,0,16,316.82,147.731)"><path d="M0.099,-0.526l0.071,0l0,0.526l-0.071,-0l0,-0.526Zm0.036,-0.115c-0.015,0 -0.027,-0.005 -0.037,-0.015c-0.01,-0.01 -0.015,-0.022 -0.015,-0.036c0,-0.013 0.005,-0.025 0.015,-0.035c0.01,-0.01 0.022,-0.015 0.037,-0.015c0.015,0 0.027,0.005 0.037,0.015c0.01,0.009 0.015,0.021 0.015,0.034c-0,0.015 -0.005,0.027 -0.015,0.037c-0.01,0.01 -0.022,0.015 -0.037,0.015Z" style="fill:#282a37;fill-rule:nonzero;"/></g><g transform="matrix(16,0,0,16,321.124,147.731)"><path d="M0.541,-0.526l-0.234,0.526l-0.073,-0l-0.233,-0.526l0.074,0l0.197,0.448l0.199,-0.448l0.07,0Z" style="fill:#282a37;fill-rule:nonzero;"/></g><g transform="matrix(16,0,0,16,329.556,147.731)"><path d="M0.557,-0.241l-0.44,0c0.004,0.055 0.025,0.099 0.063,0.133c0.038,0.033 0.086,0.05 0.144,0.05c0.033,-0 0.063,-0.006 0.09,-0.018c0.027,-0.011 0.051,-0.028 0.071,-0.051l0.04,0.046c-0.023,0.028 -0.053,0.049 -0.088,0.064c-0.035,0.015 -0.073,0.022 -0.115,0.022c-0.054,0 -0.102,-0.012 -0.144,-0.035c-0.041,-0.022 -0.074,-0.054 -0.097,-0.095c-0.023,-0.041 -0.035,-0.087 -0.035,-0.138c-0,-0.051 0.011,-0.097 0.033,-0.138c0.023,-0.041 0.053,-0.072 0.092,-0.095c0.039,-0.023 0.083,-0.034 0.132,-0.034c0.049,0 0.092,0.011 0.131,0.034c0.039,0.023 0.069,0.054 0.091,0.094c0.022,0.041 0.033,0.087 0.033,0.139l-0.001,0.022Zm-0.254,-0.228c-0.051,0 -0.093,0.016 -0.128,0.049c-0.034,0.032 -0.053,0.074 -0.058,0.126l0.373,0c-0.005,-0.052 -0.024,-0.094 -0.059,-0.126c-0.034,-0.033 -0.077,-0.049 -0.128,-0.049Z" style="fill:#282a37;fill-rule:nonzero;"/></g><g transform="matrix(16,0,0,16,343.412,147.731)"><path d="M0.305,-0.842l0.065,0l-0.33,0.942l-0.065,-0l0.33,-0.942Z" style="fill:#282a37;fill-rule:nonzero;"/></g><g transform="matrix(16,0,0,16,352.964,147.731)"><path d="M0.573,-0.526l0,0.526l-0.068,-0l-0,-0.096c-0.019,0.032 -0.044,0.057 -0.077,0.075c-0.033,0.017 -0.07,0.026 -0.112,0.026c-0.069,0 -0.123,-0.019 -0.163,-0.057c-0.039,-0.039 -0.059,-0.095 -0.059,-0.169l-0,-0.305l0.071,0l-0,0.298c-0,0.055 0.014,0.097 0.041,0.126c0.027,0.029 0.066,0.043 0.117,0.043c0.055,0 0.099,-0.017 0.131,-0.05c0.032,-0.034 0.048,-0.081 0.048,-0.141l-0,-0.276l0.071,0Z" style="fill:#282a37;fill-rule:nonzero;"/></g><g transform="matrix(16,0,0,16,363.732,147.731)"><path d="M0.434,-0l-0.167,-0.22l-0.168,0.22l-0.08,-0l0.208,-0.27l-0.198,-0.256l0.08,0l0.158,0.206l0.158,-0.206l0.078,0l-0.198,0.256l0.21,0.27l-0.081,-0Z" style="fill:#282a37;fill-rule:nonzero;"/></g><g transform="matrix(16,0,0,16,376.468,147.731)"><path d="M0.305,-0.842l0.065,0l-0.33,0.942l-0.065,-0l0.33,-0.942Z" style="fill:#282a37;fill-rule:nonzero;"/></g><g transform="matrix(16,0,0,16,386.02,147.731)"><path d="M0.573,-0.526l0,0.526l-0.068,-0l-0,-0.096c-0.019,0.032 -0.044,0.057 -0.077,0.075c-0.033,0.017 -0.07,0.026 -0.112,0.026c-0.069,0 -0.123,-0.019 -0.163,-0.057c-0.039,-0.039 -0.059,-0.095 -0.059,-0.169l-0,-0.305l0.071,0l-0,0.298c-0,0.055 0.014,0.097 0.041,0.126c0.027,0.029 0.066,0.043 0.117,0.043c0.055,0 0.099,-0.017 0.131,-0.05c0.032,-0.034 0.048,-0.081 0.048,-0.141l-0,-0.276l0.071,0Z" style="fill:#282a37;fill-rule:nonzero;"/></g><g transform="matrix(16,0,0,16,396.788,147.731)"><path d="M0.099,-0.526l0.071,0l0,0.526l-0.071,-0l0,-0.526Zm0.036,-0.115c-0.015,0 -0.027,-0.005 -0.037,-0.015c-0.01,-0.01 -0.015,-0.022 -0.015,-0.036c0,-0.013 0.005,-0.025 0.015,-0.035c0.01,-0.01 0.022,-0.015 0.037,-0.015c0.015,0 0.027,0.005 0.037,0.015c0.01,0.009 0.015,0.021 0.015,0.034c-0,0.015 -0.005,0.027 -0.015,0.037c-0.01,0.01 -0.022,0.015 -0.037,0.015Z" style="fill:#282a37;fill-rule:nonzero;"/></g><g transform="matrix(16,0,0,16,405.284,147.731)"><rect x="0" y="-0" width="0.5" height="0.048" style="fill:#c5bdc5;fill-rule:nonzero;"/></g><g transform="matrix(16,0,0,16,412.964,147.731)"><path d="M0.273,-0.687c-0.031,0 -0.054,0.008 -0.07,0.025c-0.015,0.017 -0.023,0.041 -0.023,0.074l-0,0.062l0.162,0l0,0.06l-0.16,0l-0,0.466l-0.071,-0l-0,-0.466l-0.094,0l-0,-0.06l0.094,0l-0,-0.065c-0,-0.048 0.014,-0.086 0.041,-0.114c0.028,-0.028 0.067,-0.042 0.118,-0.042c0.02,0 0.039,0.003 0.058,0.008c0.019,0.006 0.034,0.014 0.047,0.025l-0.024,0.053c-0.021,-0.017 -0.047,-0.026 -0.078,-0.026Zm0.245,0.161l0.071,-0l0,0.526l-0.071,-0l0,-0.526Zm0.036,-0.115c-0.015,-0 -0.027,-0.005 -0.037,-0.015c-0.01,-0.01 -0.015,-0.022 -0.015,-0.036c0,-0.013 0.005,-0.025 0.015,-0.035c0.01,-0.01 0.022,-0.015 0.037,-0.015c0.015,0 0.027,0.005 0.037,0.014c0.01,0.01 0.015,0.022 0.015,0.035c-0,0.015 -0.005,0.027 -0.015,0.037c-0.01,0.01 -0.022,0.015 -0.037,0.015Z" style="fill:#c5bdc5;fill-rule:nonzero;"/></g><g transform="matrix(16,0,0,16,423.972,147.731)"><path d="M0.367,-0.53c0.066,0 0.119,0.019 0.157,0.057c0.039,0.039 0.059,0.095 0.059,0.168l-0,0.305l-0.071,0l0,-0.298c0,-0.055 -0.014,-0.096 -0.041,-0.125c-0.027,-0.029 -0.066,-0.043 -0.117,-0.043c-0.057,0 -0.102,0.017 -0.135,0.05c-0.033,0.034 -0.049,0.081 -0.049,0.14l-0,0.276l-0.071,-0l-0,-0.526l0.068,0l-0,0.097c0.019,-0.032 0.046,-0.057 0.08,-0.075c0.035,-0.017 0.075,-0.026 0.12,-0.026Z" style="fill:#c5bdc5;fill-rule:nonzero;"/></g><g transform="matrix(16,0,0,16,434.804,147.731)"><path d="M0.283,-0.53c0.069,0 0.121,0.017 0.158,0.051c0.037,0.035 0.055,0.086 0.055,0.153l-0,0.326l-0.068,0l-0,-0.082c-0.016,0.027 -0.04,0.049 -0.071,0.064c-0.031,0.015 -0.067,0.023 -0.11,0.023c-0.059,0 -0.105,-0.014 -0.14,-0.042c-0.035,-0.028 -0.052,-0.065 -0.052,-0.111c-0,-0.045 0.016,-0.081 0.048,-0.108c0.033,-0.027 0.084,-0.041 0.155,-0.041l0.167,0l-0,-0.032c-0,-0.045 -0.013,-0.08 -0.038,-0.103c-0.025,-0.024 -0.062,-0.036 -0.111,-0.036c-0.033,0 -0.065,0.006 -0.096,0.017c-0.031,0.011 -0.057,0.026 -0.079,0.045l-0.032,-0.053c0.027,-0.023 0.059,-0.04 0.096,-0.052c0.037,-0.013 0.077,-0.019 0.118,-0.019Zm-0.025,0.479c0.04,0 0.074,-0.009 0.103,-0.027c0.029,-0.019 0.05,-0.045 0.064,-0.08l-0,-0.086l-0.165,0c-0.09,0 -0.135,0.031 -0.135,0.094c-0,0.031 0.012,0.055 0.035,0.073c0.023,0.017 0.056,0.026 0.098,0.026Z" style="fill:#c5bdc5;fill-rule:nonzero;"/></g><g transform="matrix(16,0,0,16,444.244,147.731)"><rect x="0.099" y="-0.742" width="0.071" height="0.742" style="fill:#c5bdc5;fill-rule:nonzero;"/></g><g transform="matrix(16,0,0,16,448.548,147.731)"><rect x="0" y="-0" width="0.5" height="0.048" style="fill:#c5bdc5;fill-rule:nonzero;"/></g><g transform="matrix(16,0,0,16,456.356,147.731)"><path d="M0.541,-0.526l-0.234,0.526l-0.073,-0l-0.233,-0.526l0.074,0l0.197,0.448l0.199,-0.448l0.07,0Z" style="fill:#c5bdc5;fill-rule:nonzero;"/></g><g transform="matrix(16,0,0,16,465.156,147.731)"><path d="M0.453,-0.367c0.044,0.015 0.078,0.037 0.101,0.066c0.024,0.029 0.036,0.065 0.036,0.106c-0,0.041 -0.011,0.076 -0.033,0.107c-0.022,0.03 -0.054,0.053 -0.095,0.07c-0.041,0.016 -0.089,0.024 -0.144,0.024c-0.084,0 -0.15,-0.018 -0.198,-0.054c-0.048,-0.036 -0.072,-0.085 -0.072,-0.147c-0,-0.042 0.011,-0.078 0.034,-0.106c0.023,-0.03 0.057,-0.051 0.101,-0.066c-0.036,-0.014 -0.063,-0.034 -0.082,-0.061c-0.019,-0.026 -0.028,-0.057 -0.028,-0.093c-0,-0.057 0.022,-0.102 0.066,-0.135c0.045,-0.033 0.104,-0.05 0.179,-0.05c0.049,0 0.092,0.008 0.129,0.023c0.037,0.015 0.066,0.036 0.087,0.064c0.021,0.028 0.031,0.061 0.031,0.098c0,0.036 -0.01,0.067 -0.029,0.094c-0.019,0.026 -0.047,0.046 -0.083,0.06Zm-0.308,-0.152c-0,0.039 0.015,0.069 0.046,0.092c0.031,0.023 0.073,0.034 0.127,0.034c0.054,0 0.097,-0.011 0.128,-0.034c0.03,-0.023 0.046,-0.053 0.046,-0.091c0,-0.039 -0.016,-0.07 -0.047,-0.093c-0.032,-0.023 -0.074,-0.034 -0.127,-0.034c-0.053,0 -0.096,0.011 -0.127,0.034c-0.031,0.023 -0.046,0.053 -0.046,0.092Zm0.173,0.464c0.062,-0 0.11,-0.013 0.145,-0.038c0.035,-0.025 0.053,-0.06 0.053,-0.103c-0,-0.043 -0.018,-0.078 -0.053,-0.102c-0.035,-0.025 -0.083,-0.038 -0.145,-0.038c-0.061,0 -0.11,0.013 -0.145,0.038c-0.035,0.025 -0.052,0.059 -0.052,0.102c-0,0.044 0.017,0.079 0.052,0.104c0.035,0.025 0.083,0.037 0.145,0.037Z" style="fill:#c5bdc5;fill-rule:nonzero;"/></g><g transform="matrix(16,0,0,16,475.364,147.731)"><path d="M0.546,-0.7l0,0.051l-0.293,0.649l-0.078,-0l0.288,-0.636l-0.36,0l-0,0.131l-0.071,0l-0,-0.195l0.514,-0Z" style="fill:#c5bdc5;fill-rule:nonzero;"/></g><g transform="matrix(16,0,0,16,484.308,147.731)"><rect x="0" y="-0" width="0.5" height="0.048" style="fill:#c5bdc5;fill-rule:nonzero;"/></g><g transform="matrix(16,0,0,16,491.988,147.731)"><path d="M0.273,-0.687c-0.031,0 -0.054,0.008 -0.07,0.025c-0.015,0.017 -0.023,0.041 -0.023,0.074l-0,0.062l0.162,0l0,0.06l-0.16,0l-0,0.466l-0.071,-0l-0,-0.466l-0.094,0l-0,-0.06l0.094,0l-0,-0.065c-0,-0.048 0.014,-0.086 0.041,-0.114c0.028,-0.028 0.067,-0.042 0.118,-0.042c0.02,0 0.039,0.003 0.058,0.008c0.019,0.006 0.034,0.014 0.047,0.025l-0.024,0.053c-0.021,-0.017 -0.047,-0.026 -0.078,-0.026Zm0.245,0.161l0.071,-0l0,0.526l-0.071,-0l0,-0.526Zm0.036,-0.115c-0.015,-0 -0.027,-0.005 -0.037,-0.015c-0.01,-0.01 -0.015,-0.022 -0.015,-0.036c0,-0.013 0.005,-0.025 0.015,-0.035c0.01,-0.01 0.022,-0.015 0.037,-0.015c0.015,0 0.027,0.005 0.037,0.014c0.01,0.01 0.015,0.022 0.015,0.035c-0,0.015 -0.005,0.027 -0.015,0.037c-0.01,0.01 -0.022,0.015 -0.037,0.015Z" style="fill:#c5bdc5;fill-rule:nonzero;"/></g><g transform="matrix(16,0,0,16,502.996,147.731)"><path d="M0.367,-0.53c0.066,0 0.119,0.019 0.157,0.057c0.039,0.039 0.059,0.095 0.059,0.168l-0,0.305l-0.071,0l0,-0.298c0,-0.055 -0.014,-0.096 -0.041,-0.125c-0.027,-0.029 -0.066,-0.043 -0.117,-0.043c-0.057,0 -0.102,0.017 -0.135,0.05c-0.033,0.034 -0.049,0.081 -0.049,0.14l-0,0.276l-0.071,-0l-0,-0.526l0.068,0l-0,0.097c0.019,-0.032 0.046,-0.057 0.08,-0.075c0.035,-0.017 0.075,-0.026 0.12,-0.026Z" style="fill:#c5bdc5;fill-rule:nonzero;"/></g><g transform="matrix(16,0,0,16,513.828,147.731)"><path d="M0.283,-0.53c0.069,0 0.121,0.017 0.158,0.051c0.037,0.035 0.055,0.086 0.055,0.153l-0,0.326l-0.068,0l-0,-0.082c-0.016,0.027 -0.04,0.049 -0.071,0.064c-0.031,0.015 -0.067,0.023 -0.11,0.023c-0.059,0 -0.105,-0.014 -0.14,-0.042c-0.035,-0.028 -0.052,-0.065 -0.052,-0.111c-0,-0.045 0.016,-0.081 0.048,-0.108c0.033,-0.027 0.084,-0.041 0.155,-0.041l0.167,0l-0,-0.032c-0,-0.045 -0.013,-0.08 -0.038,-0.103c-0.025,-0.024 -0.062,-0.036 -0.111,-0.036c-0.033,0 -0.065,0.006 -0.096,0.017c-0.031,0.011 -0.057,0.026 -0.079,0.045l-0.032,-0.053c0.027,-0.023 0.059,-0.04 0.096,-0.052c0.037,-0.013 0.077,-0.019 0.118,-0.019Zm-0.025,0.479c0.04,0 0.074,-0.009 0.103,-0.027c0.029,-0.019 0.05,-0.045 0.064,-0.08l-0,-0.086l-0.165,0c-0.09,0 -0.135,0.031 -0.135,0.094c-0,0.031 0.012,0.055 0.035,0.073c0.023,0.017 0.056,0.026 0.098,0.026Z" style="fill:#c5bdc5;fill-rule:nonzero;"/></g><g transform="matrix(16,0,0,16,523.268,147.731)"><rect x="0.099" y="-0.742" width="0.071" height="0.742" style="fill:#c5bdc5;fill-rule:nonzero;"/></g></g></g></svg>