<?xml version="1.0" encoding="UTF-8" standalone="no"?><!DOCTYPE svg PUBLIC "-//W3C//DTD SVG 1.1//EN" "http://www.w3.org/Graphics/SVG/1.1/DTD/svg11.dtd"><svg width="100%" height="100%" viewBox="0 0 1317 238" version="1.1" xmlns="http://www.w3.org/2000/svg" xmlns:xlink="http://www.w3.org/1999/xlink" xml:space="preserve" xmlns:serif="http://www.serif.com/" style="fill-rule:evenodd;clip-rule:evenodd;stroke-linejoin:round;stroke-miterlimit:2;"><g id="b.profile"><path d="M85.462,83.88l-74.154,46.154l74.154,46.769l-7.693,9.539l-77.333,-48.513l-0,-16l78.359,-48.41l6.667,10.461Z" style="fill:#282a37;fill-rule:nonzero;"/><path d="M272.231,179.367c-0,-3.008 0.718,-5.777 2.154,-8.307c1.436,-2.53 3.401,-4.513 5.897,-5.949c2.496,-1.436 5.282,-2.154 8.359,-2.154c3.214,0 6.103,0.718 8.667,2.154c2.564,1.436 4.564,3.402 6,5.897c1.436,2.496 2.154,5.282 2.154,8.359c-0,3.146 -0.718,6 -2.154,8.564c-1.436,2.565 -3.436,4.582 -6,6.052c-2.564,1.47 -5.453,2.205 -8.667,2.205c-3.077,-0 -5.863,-0.735 -8.359,-2.205c-2.496,-1.47 -4.461,-3.487 -5.897,-6.052c-1.436,-2.564 -2.154,-5.418 -2.154,-8.564Z" style="fill:#282a37;fill-rule:nonzero;"/><path d="M463.513,95.675c-0,15.658 -4.804,26.992 -14.41,34c-9.607,7.009 -22.821,10.513 -39.641,10.513l-18.872,-0l-0,53.949l-13.128,-0l-0,-140.923l33.435,-0c16.616,-0 29.539,3.538 38.77,10.615c9.23,7.077 13.846,17.692 13.846,31.846Zm-14.359,0.308c-0,-11.214 -3.214,-19.282 -9.641,-24.205c-6.428,-4.923 -15.043,-7.385 -25.846,-7.385l-23.077,0l-0,64.41l21.641,0c11.692,0 20.769,-2.393 27.231,-7.179c6.461,-4.787 9.692,-13.334 9.692,-25.641Z" style="fill:#282a37;fill-rule:nonzero;"/><path d="M565.872,84.29c2.53,0 4.837,0.171 6.923,0.513c2.085,0.342 4.632,0.889 7.641,1.641l-1.436,33.846l-12.308,0l0,-21.025l0.205,-2.667c-0.547,-0.068 -1.401,-0.102 -2.564,-0.102c-8.752,-0 -16.154,2.991 -22.205,8.974c-6.051,5.983 -10.991,15.299 -14.82,27.949l-0,50.051l22.154,-0l-0,10.667l-52.411,-0l0,-10.667l17.539,-0l-0,-86.256l-17.539,-0l0,-10.77l27.282,0l2.359,25.846c4.513,-9.367 9.778,-16.376 15.795,-21.025c6.017,-4.65 13.812,-6.975 23.385,-6.975Z" style="fill:#282a37;fill-rule:nonzero;"/><path d="M658.487,84.496c9.641,-0 17.778,2.256 24.41,6.769c6.633,4.513 11.59,10.94 14.872,19.282c3.282,8.342 4.923,18.256 4.923,29.743c0,10.804 -1.692,20.428 -5.077,28.872c-3.384,8.445 -8.427,15.06 -15.128,19.846c-6.701,4.787 -14.803,7.18 -24.308,7.18c-9.641,-0 -17.794,-2.308 -24.461,-6.923c-6.667,-4.616 -11.675,-11.094 -15.026,-19.436c-3.35,-8.342 -5.025,-18.12 -5.025,-29.333c-0,-11.146 1.692,-20.923 5.077,-29.334c3.384,-8.41 8.444,-14.957 15.179,-19.641c6.735,-4.684 14.923,-7.025 24.564,-7.025Zm0,11.179c-20.581,0 -30.872,14.94 -30.872,44.821c0,29.606 10.188,44.41 30.564,44.41c20.377,-0 30.565,-14.872 30.565,-44.616c-0,-29.743 -10.086,-44.615 -30.257,-44.615Z" style="fill:#282a37;fill-rule:nonzero;"/><path d="M804.333,41.111c5.06,-0 9.744,0.462 14.052,1.385c4.307,0.923 8.581,2.307 12.82,4.153l-4.615,10.359c-6.564,-3.145 -14.257,-4.718 -23.077,-4.718c-7.863,0 -13.846,1.59 -17.949,4.77c-4.102,3.179 -6.154,7.88 -6.154,14.102l0,24.103l37.026,-0l-1.333,10.872l-35.693,-0l0,88l-12.718,-0l0,-88l-26.666,-0l-0,-10.872l26.666,-0l0,-23.282c0,-6.291 1.693,-11.778 5.077,-16.462c3.385,-4.684 7.949,-8.256 13.693,-10.718c5.743,-2.461 12.034,-3.692 18.871,-3.692Z" style="fill:#282a37;fill-rule:nonzero;"/><path d="M904.436,45.931c3.214,0 5.795,0.975 7.743,2.924c1.949,1.948 2.924,4.359 2.924,7.23c-0,3.077 -0.975,5.607 -2.924,7.59c-1.948,1.983 -4.529,2.974 -7.743,2.974c-3.077,0 -5.573,-0.991 -7.487,-2.974c-1.915,-1.983 -2.872,-4.513 -2.872,-7.59c-0,-2.871 0.974,-5.282 2.923,-7.23c1.949,-1.949 4.427,-2.924 7.436,-2.924Zm12,137.129l31.282,-0l-0,11.077l-78.051,-0l-0,-11.077l34.051,-0l-0,-76.923l-33.026,-0l0,-10.872l45.744,-0l-0,87.795Z" style="fill:#282a37;fill-rule:nonzero;"/><path d="M1025.97,169.726c0,5.334 1.693,9.231 5.077,11.693c3.385,2.461 8.017,3.692 13.898,3.692c6.017,-0 12.342,-1.299 18.974,-3.897l3.692,9.846c-2.94,1.504 -6.478,2.735 -10.615,3.692c-4.137,0.957 -8.564,1.436 -13.282,1.436c-5.744,-0 -10.923,-1.043 -15.539,-3.128c-4.615,-2.086 -8.256,-5.129 -10.923,-9.129c-2.666,-4 -4,-8.735 -4,-14.205l0,-115.795l-33.435,0l-0,-11.076l46.153,-0l0,126.871Z" style="fill:#282a37;fill-rule:nonzero;"/><path d="M1120.64,145.419c0.137,8.683 1.709,15.948 4.718,21.795c3.009,5.846 6.991,10.188 11.949,13.025c4.957,2.838 10.478,4.257 16.564,4.257c5.47,-0 10.41,-0.787 14.82,-2.359c4.411,-1.573 9.146,-4.103 14.205,-7.59l6.667,9.538c-4.923,3.829 -10.513,6.804 -16.769,8.923c-6.257,2.12 -12.393,3.18 -18.41,3.18c-9.778,-0 -18.24,-2.308 -25.385,-6.923c-7.145,-4.616 -12.598,-11.128 -16.359,-19.539c-3.761,-8.41 -5.641,-18.188 -5.641,-29.333c-0,-10.872 1.897,-20.53 5.692,-28.974c3.795,-8.445 9.146,-15.043 16.052,-19.795c6.906,-4.752 14.803,-7.128 23.692,-7.128c8.615,-0 16.068,2.102 22.359,6.307c6.29,4.205 11.094,10.223 14.41,18.052c3.316,7.829 4.974,17.076 4.974,27.743c0,1.573 -0.102,4.513 -0.307,8.821l-73.231,-0Zm32.103,-49.026c-5.949,0 -11.231,1.385 -15.847,4.154c-4.615,2.769 -8.324,6.957 -11.128,12.564c-2.803,5.607 -4.444,12.547 -4.923,20.82l61.231,0c-0.274,-12.307 -3.043,-21.641 -8.308,-28c-5.265,-6.358 -12.273,-9.538 -21.025,-9.538Z" style="fill:#282a37;fill-rule:nonzero;"/><path d="M1316.23,121.829l-0,16l-77.334,48.513l-7.692,-9.949l74.154,-46.359l-74.154,-46.667l6.564,-9.948l78.462,48.41Z" style="fill:#282a37;fill-rule:nonzero;"/><path d="M112.206,122.836l-0,0l-0,-94.639c-0,-14.603 11.856,-26.458 26.458,-26.458c14.603,-0 26.459,11.855 26.459,26.458l-0,22.077c-3.612,1.383 -7.162,3.068 -10.618,5.063c-7.215,4.165 -13.464,9.364 -18.67,15.302c3.366,-2.95 7.069,-5.615 11.091,-7.937c33.189,-19.162 75.692,-7.774 94.854,25.415c12.84,22.24 11.962,48.66 0,69.439l0.001,-0l-37.398,64.774c-7.301,12.647 -23.497,16.986 -36.143,9.685c-12.646,-7.301 -16.986,-23.497 -9.685,-36.143l1.117,-1.934c3.82,0.608 7.736,0.924 11.726,0.924c8.325,0 16.332,-1.375 23.804,-3.911c-28.372,5.639 -58.433,-6.966 -73.692,-33.396c-6.322,-10.95 -9.319,-22.914 -9.304,-34.719Zm70.023,-26.484c14.65,-0 26.544,11.894 26.544,26.544c-0,14.65 -11.894,26.543 -26.544,26.543c-14.65,0 -26.544,-11.893 -26.544,-26.543c0,-14.65 11.894,-26.544 26.544,-26.544Z" style="fill:#282a37;"/></g></svg>