<?xml version="1.0" encoding="UTF-8" standalone="no"?><!DOCTYPE svg PUBLIC "-//W3C//DTD SVG 1.1//EN" "http://www.w3.org/Graphics/SVG/1.1/DTD/svg11.dtd"><svg width="100%" height="100%" viewBox="0 0 1071 238" version="1.1" xmlns="http://www.w3.org/2000/svg" xmlns:xlink="http://www.w3.org/1999/xlink" xml:space="preserve" xmlns:serif="http://www.serif.com/" style="fill-rule:evenodd;clip-rule:evenodd;stroke-linejoin:round;stroke-miterlimit:2;"><g id="b.stats"><path d="M85.462,82.141l-74.154,46.154l74.154,46.769l-7.693,9.539l-77.333,-48.513l-0,-16l78.359,-48.41l6.667,10.461Z" style="fill:#282a37;fill-rule:nonzero;"/><path d="M272.231,177.629c-0,-3.009 0.718,-5.778 2.154,-8.308c1.436,-2.53 3.401,-4.513 5.897,-5.949c2.496,-1.436 5.282,-2.154 8.359,-2.154c3.214,0 6.103,0.718 8.667,2.154c2.564,1.436 4.564,3.402 6,5.898c1.436,2.495 2.154,5.282 2.154,8.359c-0,3.145 -0.718,6 -2.154,8.564c-1.436,2.564 -3.436,4.581 -6,6.051c-2.564,1.47 -5.453,2.205 -8.667,2.205c-3.077,0 -5.863,-0.735 -8.359,-2.205c-2.496,-1.47 -4.461,-3.487 -5.897,-6.051c-1.436,-2.564 -2.154,-5.419 -2.154,-8.564Z" style="fill:#282a37;fill-rule:nonzero;"/><path d="M458.59,154.039c-0,7.931 -1.949,14.94 -5.846,21.025c-3.898,6.086 -9.59,10.838 -17.077,14.257c-7.488,3.419 -16.428,5.128 -26.821,5.128c-9.436,0 -18.239,-1.47 -26.41,-4.41c-8.171,-2.94 -15.197,-7.248 -21.077,-12.923l8.615,-9.846c5.06,4.923 10.787,8.683 17.18,11.282c6.393,2.598 13.863,3.897 22.41,3.897c6.291,0 12.12,-1.06 17.487,-3.179c5.368,-2.12 9.71,-5.334 13.026,-9.641c3.316,-4.308 4.974,-9.607 4.974,-15.898c0,-5.06 -0.94,-9.299 -2.82,-12.718c-1.881,-3.419 -5.163,-6.444 -9.846,-9.077c-4.684,-2.632 -11.3,-5.213 -19.847,-7.743c-9.777,-2.804 -17.914,-5.829 -24.41,-9.077c-6.496,-3.248 -11.607,-7.368 -15.333,-12.359c-3.727,-4.992 -5.59,-11.111 -5.59,-18.359c0,-6.564 1.795,-12.496 5.385,-17.795c3.589,-5.299 8.684,-9.47 15.282,-12.513c6.598,-3.043 14.171,-4.564 22.718,-4.564c9.094,-0 17.077,1.282 23.948,3.846c6.872,2.564 13.351,6.445 19.436,11.641l-8.82,9.641c-4.992,-4.444 -10.428,-7.743 -16.308,-9.897c-5.88,-2.154 -11.966,-3.231 -18.256,-3.231c-5.539,-0 -10.599,0.855 -15.18,2.564c-4.581,1.709 -8.239,4.274 -10.974,7.692c-2.735,3.419 -4.103,7.624 -4.103,12.616c0,4.444 1.18,8.239 3.539,11.384c2.359,3.146 6.205,6.017 11.538,8.616c5.334,2.598 12.821,5.299 22.462,8.102c8.205,2.325 15.196,4.975 20.974,7.949c5.778,2.974 10.513,7.18 14.205,12.615c3.693,5.436 5.539,12.428 5.539,20.975Z" style="fill:#282a37;fill-rule:nonzero;"/><path d="M578.179,187.27c-3.418,2.256 -7.641,4.017 -12.666,5.282c-5.026,1.265 -9.795,1.897 -14.308,1.897c-7.043,0 -13.179,-1.299 -18.41,-3.897c-5.231,-2.599 -9.231,-6.188 -12,-10.77c-2.769,-4.581 -4.154,-9.777 -4.154,-15.589l0,-68.821l-25.436,0l0,-10.667l25.436,0l0,-24.82l12.718,-1.538l-0,26.358l37.949,0l-1.744,10.667l-36.205,0l-0,68.513c-0,6.427 1.744,11.282 5.231,14.564c3.487,3.282 9.128,4.923 16.923,4.923c7.453,0 14.496,-1.743 21.128,-5.231l5.538,9.129Z" style="fill:#282a37;fill-rule:nonzero;"/><path d="M692.231,171.167c-0,4.239 0.718,7.402 2.154,9.487c1.436,2.086 3.794,3.607 7.077,4.564l-3.488,9.334c-4.376,-0.684 -8.119,-2.274 -11.23,-4.77c-3.112,-2.495 -5.282,-6.068 -6.513,-10.718c-3.761,4.992 -8.462,8.804 -14.103,11.436c-5.641,2.633 -12.017,3.949 -19.128,3.949c-7.043,0 -13.145,-1.35 -18.308,-4.051c-5.162,-2.701 -9.111,-6.547 -11.846,-11.539c-2.735,-4.991 -4.102,-10.837 -4.102,-17.538c-0,-10.94 4.273,-19.316 12.82,-25.128c8.547,-5.812 20.923,-8.718 37.128,-8.718l16.308,-0l-0,-10.462c-0,-8.068 -2.308,-13.88 -6.923,-17.436c-4.615,-3.555 -11.299,-5.333 -20.051,-5.333c-8.274,-0 -17.47,1.812 -27.59,5.436l-3.692,-10.462c6.222,-2.324 12,-3.983 17.333,-4.974c5.333,-0.992 10.598,-1.487 15.795,-1.487c8.273,-0 15.282,1.401 21.025,4.205c5.744,2.803 10.069,6.735 12.975,11.795c2.906,5.06 4.359,11.008 4.359,17.846l-0,54.564Zm-42.769,13.128c5.812,0 11.282,-1.436 16.41,-4.307c5.128,-2.872 9.504,-6.872 13.128,-12l-0,-30.77l-17.846,0c-12.171,0 -20.94,2.12 -26.308,6.359c-5.367,4.24 -8.051,10.291 -8.051,18.154c-0,7.521 1.863,13.163 5.59,16.923c3.726,3.761 9.418,5.641 17.077,5.641Z" style="fill:#282a37;fill-rule:nonzero;"/><path d="M824.333,187.27c-3.418,2.256 -7.641,4.017 -12.666,5.282c-5.026,1.265 -9.795,1.897 -14.308,1.897c-7.043,0 -13.18,-1.299 -18.41,-3.897c-5.231,-2.599 -9.231,-6.188 -12,-10.77c-2.77,-4.581 -4.154,-9.777 -4.154,-15.589l-0,-68.821l-25.436,0l-0,-10.667l25.436,0l-0,-24.82l12.718,-1.538l-0,26.358l37.949,0l-1.744,10.667l-36.205,0l-0,68.513c-0,6.427 1.743,11.282 5.231,14.564c3.487,3.282 9.128,4.923 16.923,4.923c7.453,0 14.495,-1.743 21.128,-5.231l5.538,9.129Z" style="fill:#282a37;fill-rule:nonzero;"/><path d="M899.923,182.859c6.017,0 11.248,-0.803 15.692,-2.41c4.445,-1.607 7.847,-3.846 10.206,-6.718c2.358,-2.872 3.538,-6.222 3.538,-10.051c-0,-3.898 -0.615,-7.094 -1.846,-9.59c-1.231,-2.496 -3.71,-4.769 -7.436,-6.82c-3.727,-2.052 -9.351,-4 -16.872,-5.847c-8.684,-2.119 -15.675,-4.324 -20.974,-6.615c-5.299,-2.291 -9.419,-5.35 -12.359,-9.179c-2.94,-3.83 -4.41,-8.718 -4.41,-14.667c-0,-5.812 1.675,-10.838 5.025,-15.077c3.351,-4.239 7.983,-7.487 13.898,-9.744c5.914,-2.256 12.632,-3.384 20.153,-3.384c7.864,-0 14.941,1.06 21.231,3.179c6.291,2.12 11.795,4.923 16.513,8.411l-5.949,9.435c-4.512,-3.145 -9.196,-5.555 -14.051,-7.23c-4.855,-1.676 -10.735,-2.513 -17.641,-2.513c-9.026,-0 -15.573,1.419 -19.641,4.256c-4.068,2.838 -6.103,6.718 -6.103,11.641c0,3.556 0.924,6.479 2.77,8.769c1.846,2.291 4.82,4.291 8.923,6c4.102,1.71 10.051,3.59 17.846,5.642c7.726,2.051 14.12,4.376 19.179,6.974c5.06,2.598 8.992,6 11.795,10.205c2.804,4.205 4.205,9.487 4.205,15.846c0,7.18 -2.051,13.094 -6.153,17.744c-4.103,4.649 -9.453,8.034 -16.052,10.154c-6.598,2.119 -13.795,3.179 -21.589,3.179c-16.069,0 -29.505,-4.684 -40.308,-14.051l7.897,-9.334c4.308,3.693 9.248,6.582 14.821,8.667c5.572,2.086 11.47,3.128 17.692,3.128Z" style="fill:#282a37;fill-rule:nonzero;"/><path d="M1070.08,120.09l-0,16l-77.333,48.513l-7.693,-9.949l74.154,-46.359l-74.154,-46.666l6.564,-9.949l78.462,48.41Z" style="fill:#282a37;fill-rule:nonzero;"/><path d="M112.206,121.098l-0,-0l-0,-94.639c-0,-14.604 11.856,-26.459 26.458,-26.459c14.603,-0 26.459,11.855 26.459,26.459l-0,22.076c-3.612,1.383 -7.162,3.068 -10.618,5.063c-7.215,4.166 -13.464,9.364 -18.67,15.302c3.366,-2.95 7.069,-5.615 11.091,-7.937c33.189,-19.162 75.692,-7.774 94.854,25.415c12.84,22.24 11.962,48.661 0,69.439l0.001,0l-37.398,64.774c-7.301,12.647 -23.497,16.987 -36.143,9.685c-12.646,-7.301 -16.986,-23.497 -9.685,-36.143l1.117,-1.934c3.82,0.608 7.736,0.925 11.726,0.925c8.325,-0 16.332,-1.376 23.804,-3.912c-28.372,5.639 -58.433,-6.966 -73.692,-33.396c-6.322,-10.95 -9.319,-22.914 -9.304,-34.718Zm70.023,-26.485c14.65,-0 26.544,11.894 26.544,26.544c-0,14.65 -11.894,26.544 -26.544,26.544c-14.65,-0 -26.544,-11.894 -26.544,-26.544c0,-14.65 11.894,-26.544 26.544,-26.544Z" style="fill:#282a37;"/></g></svg>