<?xml version="1.0" encoding="UTF-8" standalone="no"?><!DOCTYPE svg PUBLIC "-//W3C//DTD SVG 1.1//EN" "http://www.w3.org/Graphics/SVG/1.1/DTD/svg11.dtd"><svg width="100%" height="100%" viewBox="0 0 2055 134" version="1.1" xmlns="http://www.w3.org/2000/svg" xmlns:xlink="http://www.w3.org/1999/xlink" xml:space="preserve" xmlns:serif="http://www.serif.com/" style="fill-rule:evenodd;clip-rule:evenodd;stroke-linejoin:round;stroke-miterlimit:2;"><g id="import"><g><path d="M17.8,21.422c1.607,-0 2.898,0.487 3.872,1.461c0.974,0.975 1.461,2.18 1.461,3.616c0,1.538 -0.487,2.803 -1.461,3.794c-0.974,0.992 -2.265,1.488 -3.872,1.488c-1.538,-0 -2.786,-0.496 -3.744,-1.488c-0.957,-0.991 -1.435,-2.256 -1.435,-3.794c-0,-1.436 0.487,-2.641 1.461,-3.616c0.974,-0.974 2.214,-1.461 3.718,-1.461Zm6,72.666l15.641,0l0,5.539l-39.026,-0l0,-5.539l17.026,0l0,-42.769l-16.513,0l0,-5.538l22.872,-0l0,48.307Z" style="fill:#282a37;fill-rule:nonzero;"/><path d="M93.954,44.806c6.803,0 10.205,4.889 10.205,14.667l0,40.154l-6.256,-0l-0,-38.923c-0,-2.94 -0.086,-5.128 -0.257,-6.564c-0.171,-1.436 -0.581,-2.513 -1.231,-3.231c-0.649,-0.718 -1.675,-1.077 -3.076,-1.077c-1.915,-0 -3.77,0.598 -5.565,1.795c-1.794,1.196 -3.461,3.043 -5,5.538l0,42.462l-7.076,-0l-0,-38.923c-0,-2.94 -0.086,-5.128 -0.257,-6.564c-0.171,-1.436 -0.581,-2.513 -1.231,-3.231c-0.649,-0.718 -1.675,-1.077 -3.077,-1.077c-4.034,-0 -7.555,2.444 -10.564,7.333l0,42.462l-6.154,-0l0,-53.846l5.231,-0l0.359,6.512c1.641,-2.324 3.393,-4.153 5.257,-5.487c1.863,-1.333 4.059,-2 6.589,-2c5.3,0 8.718,2.445 10.257,7.334c1.538,-2.394 3.222,-4.214 5.051,-5.462c1.829,-1.248 4.094,-1.872 6.795,-1.872Z" style="fill:#282a37;fill-rule:nonzero;"/><path d="M143.646,44.806c6.906,0 11.872,2.428 14.898,7.282c3.025,4.855 4.538,11.727 4.538,20.616c0,5.538 -0.752,10.401 -2.256,14.589c-1.505,4.189 -3.812,7.462 -6.923,9.821c-3.111,2.359 -6.975,3.538 -11.59,3.538c-6.12,0 -11.009,-2.136 -14.667,-6.41l0,25.949l-6.359,0.872l0,-75.282l5.231,-0l0.718,7.948c1.983,-2.803 4.368,-4.991 7.154,-6.564c2.786,-1.572 5.872,-2.359 9.256,-2.359Zm-1.128,5.436c-3.043,0 -5.829,0.898 -8.359,2.692c-2.53,1.795 -4.701,4.026 -6.513,6.693l0,27.897c1.505,2.257 3.462,4.043 5.872,5.359c2.41,1.316 5,1.975 7.769,1.975c4.992,-0 8.71,-1.838 11.154,-5.513c2.445,-3.675 3.667,-9.257 3.667,-16.744c-0,-14.906 -4.53,-22.359 -13.59,-22.359Z" style="fill:#282a37;fill-rule:nonzero;"/><path d="M202.518,44.806c4.821,0 8.889,1.128 12.205,3.385c3.316,2.256 5.795,5.47 7.436,9.641c1.641,4.171 2.462,9.128 2.462,14.872c-0,5.401 -0.847,10.213 -2.539,14.436c-1.692,4.222 -4.214,7.53 -7.564,9.923c-3.35,2.393 -7.402,3.589 -12.154,3.589c-4.82,0 -8.897,-1.153 -12.231,-3.461c-3.333,-2.308 -5.837,-5.547 -7.512,-9.718c-1.676,-4.171 -2.513,-9.06 -2.513,-14.667c-0,-5.572 0.846,-10.461 2.538,-14.666c1.693,-4.206 4.222,-7.479 7.59,-9.821c3.368,-2.342 7.462,-3.513 12.282,-3.513Zm0,5.59c-10.291,0 -15.436,7.47 -15.436,22.41c0,14.804 5.094,22.205 15.282,22.205c10.188,0 15.282,-7.435 15.282,-22.307c0,-14.872 -5.042,-22.308 -15.128,-22.308Z" style="fill:#282a37;fill-rule:nonzero;"/><path d="M279.287,44.704c1.265,-0 2.419,0.085 3.462,0.256c1.043,0.171 2.316,0.445 3.82,0.821l-0.718,16.923l-6.153,-0l-0,-10.513l0.102,-1.333c-0.273,-0.035 -0.701,-0.052 -1.282,-0.052c-4.376,0 -8.077,1.496 -11.103,4.487c-3.025,2.992 -5.495,7.65 -7.41,13.975l0,25.025l11.077,0l0,5.334l-26.205,-0l0,-5.334l8.769,0l0,-43.128l-8.769,0l0,-5.384l13.641,-0l1.18,12.923c2.256,-4.684 4.888,-8.188 7.897,-10.513c3.009,-2.325 6.906,-3.487 11.692,-3.487Z" style="fill:#282a37;fill-rule:nonzero;"/><path d="M346.98,97.063c-1.71,1.128 -3.821,2.008 -6.334,2.641c-2.513,0.632 -4.897,0.948 -7.154,0.948c-3.521,0 -6.589,-0.649 -9.205,-1.948c-2.615,-1.299 -4.615,-3.094 -6,-5.385c-1.384,-2.29 -2.077,-4.889 -2.077,-7.795l0,-34.41l-12.718,-0l0,-5.333l12.718,-0l0,-12.411l6.359,-0.769l0,13.18l18.975,-0l-0.872,5.333l-18.103,-0l0,34.256c0,3.214 0.872,5.641 2.616,7.282c1.743,1.641 4.564,2.462 8.461,2.462c3.727,-0 7.248,-0.872 10.564,-2.615l2.77,4.564Z" style="fill:#282a37;fill-rule:nonzero;"/><path d="M445.339,61.934l-20,-6.615l-2,6.205l20.102,6.41l-12.564,17.026l5.282,3.846l12.359,-17.23l12.359,17.23l5.282,-3.846l-12.564,-17.026l20.103,-6.41l-2,-6.205l-20,6.615l0.205,-21.23l-6.77,-0l0.206,21.23Z" style="fill:#282a37;fill-rule:nonzero;"/><path d="M588.621,89.011c-0,2.12 0.359,3.701 1.077,4.744c0.717,1.043 1.897,1.803 3.538,2.282l-1.744,4.667c-2.188,-0.342 -4.059,-1.137 -5.615,-2.385c-1.556,-1.248 -2.641,-3.034 -3.256,-5.359c-1.881,2.496 -4.231,4.402 -7.052,5.718c-2.82,1.316 -6.008,1.974 -9.564,1.974c-3.521,0 -6.572,-0.675 -9.154,-2.025c-2.581,-1.351 -4.555,-3.274 -5.923,-5.769c-1.367,-2.496 -2.051,-5.419 -2.051,-8.77c0,-5.47 2.137,-9.658 6.41,-12.564c4.274,-2.906 10.462,-4.359 18.564,-4.359l8.154,0l0,-5.231c0,-4.034 -1.154,-6.94 -3.461,-8.717c-2.308,-1.778 -5.65,-2.667 -10.026,-2.667c-4.137,-0 -8.735,0.906 -13.795,2.718l-1.846,-5.231c3.111,-1.162 6,-1.991 8.667,-2.487c2.666,-0.496 5.299,-0.744 7.897,-0.744c4.137,0 7.641,0.701 10.513,2.103c2.872,1.402 5.034,3.367 6.487,5.897c1.453,2.53 2.18,5.505 2.18,8.923l-0,27.282Zm-21.385,6.565c2.906,-0 5.641,-0.718 8.205,-2.154c2.564,-1.436 4.752,-3.436 6.564,-6l0,-15.385l-8.923,0c-6.085,0 -10.47,1.06 -13.154,3.18c-2.683,2.119 -4.025,5.145 -4.025,9.076c-0,3.761 0.931,6.582 2.795,8.462c1.863,1.88 4.709,2.821 8.538,2.821Z" style="fill:#282a37;fill-rule:nonzero;"/><path d="M630.928,94.858c3.009,-0 5.624,-0.402 7.846,-1.206c2.223,-0.803 3.924,-1.923 5.103,-3.359c1.179,-1.435 1.769,-3.111 1.769,-5.025c0,-1.949 -0.307,-3.547 -0.923,-4.795c-0.615,-1.248 -1.855,-2.385 -3.718,-3.41c-1.863,-1.026 -4.675,-2 -8.436,-2.923c-4.342,-1.06 -7.837,-2.163 -10.487,-3.308c-2.649,-1.145 -4.709,-2.675 -6.179,-4.59c-1.47,-1.914 -2.205,-4.359 -2.205,-7.333c-0,-2.906 0.837,-5.419 2.512,-7.539c1.676,-2.119 3.992,-3.743 6.949,-4.871c2.957,-1.129 6.316,-1.693 10.077,-1.693c3.932,0 7.47,0.53 10.615,1.59c3.146,1.06 5.898,2.462 8.257,4.205l-2.975,4.718c-2.256,-1.573 -4.598,-2.778 -7.025,-3.615c-2.428,-0.838 -5.368,-1.257 -8.821,-1.257c-4.513,0 -7.786,0.71 -9.82,2.129c-2.034,1.418 -3.052,3.358 -3.052,5.82c0,1.778 0.462,3.239 1.385,4.385c0.923,1.145 2.41,2.145 4.462,3c2.051,0.854 5.025,1.795 8.923,2.82c3.863,1.026 7.06,2.188 9.589,3.487c2.53,1.299 4.496,3 5.898,5.103c1.402,2.102 2.102,4.743 2.102,7.923c0,3.59 -1.025,6.547 -3.076,8.872c-2.052,2.325 -4.727,4.017 -8.026,5.077c-3.299,1.06 -6.898,1.589 -10.795,1.589c-8.034,0 -14.752,-2.341 -20.154,-7.025l3.949,-4.667c2.154,1.846 4.624,3.291 7.41,4.333c2.786,1.043 5.735,1.565 8.846,1.565Z" style="fill:#282a37;fill-rule:nonzero;"/><path d="M890.826,23.114c2.53,-0 4.872,0.231 7.025,0.692c2.154,0.462 4.291,1.154 6.411,2.077l-2.308,5.18c-3.282,-1.573 -7.128,-2.359 -11.539,-2.359c-3.931,-0 -6.923,0.795 -8.974,2.384c-2.051,1.59 -3.077,3.941 -3.077,7.052l0,12.051l18.513,-0l-0.667,5.436l-17.846,-0l0,44l-6.359,-0l0,-44l-13.333,-0l-0,-5.436l13.333,-0l0,-11.641c0,-3.145 0.846,-5.889 2.539,-8.231c1.692,-2.342 3.974,-4.128 6.846,-5.359c2.872,-1.231 6.017,-1.846 9.436,-1.846Z" style="fill:#282a37;fill-rule:nonzero;"/><path d="M956.21,44.704c1.265,-0 2.419,0.085 3.462,0.256c1.043,0.171 2.316,0.445 3.82,0.821l-0.718,16.923l-6.153,-0l-0,-10.513l0.102,-1.333c-0.273,-0.035 -0.701,-0.052 -1.282,-0.052c-4.376,0 -8.077,1.496 -11.102,4.487c-3.026,2.992 -5.496,7.65 -7.411,13.975l0,25.025l11.077,0l0,5.334l-26.205,-0l0,-5.334l8.769,0l0,-43.128l-8.769,0l0,-5.384l13.641,-0l1.18,12.923c2.256,-4.684 4.888,-8.188 7.897,-10.513c3.009,-2.325 6.906,-3.487 11.692,-3.487Z" style="fill:#282a37;fill-rule:nonzero;"/><path d="M1002.52,44.806c4.821,0 8.889,1.128 12.205,3.385c3.316,2.256 5.795,5.47 7.436,9.641c1.641,4.171 2.462,9.128 2.462,14.872c-0,5.401 -0.847,10.213 -2.539,14.436c-1.692,4.222 -4.214,7.53 -7.564,9.923c-3.35,2.393 -7.402,3.589 -12.154,3.589c-4.82,0 -8.897,-1.153 -12.231,-3.461c-3.333,-2.308 -5.837,-5.547 -7.512,-9.718c-1.676,-4.171 -2.513,-9.06 -2.513,-14.667c-0,-5.572 0.846,-10.461 2.538,-14.666c1.693,-4.206 4.222,-7.479 7.59,-9.821c3.368,-2.342 7.462,-3.513 12.282,-3.513Zm0,5.59c-10.291,0 -15.436,7.47 -15.436,22.41c0,14.804 5.094,22.205 15.282,22.205c10.188,0 15.282,-7.435 15.282,-22.307c0,-14.872 -5.042,-22.308 -15.128,-22.308Z" style="fill:#282a37;fill-rule:nonzero;"/><path d="M1078.57,44.806c6.804,0 10.205,4.889 10.205,14.667l0,40.154l-6.256,-0l0,-38.923c0,-2.94 -0.085,-5.128 -0.256,-6.564c-0.171,-1.436 -0.582,-2.513 -1.231,-3.231c-0.65,-0.718 -1.675,-1.077 -3.077,-1.077c-1.915,-0 -3.769,0.598 -5.564,1.795c-1.795,1.196 -3.462,3.043 -5,5.538l-0,42.462l-7.077,-0l-0,-38.923c-0,-2.94 -0.086,-5.128 -0.257,-6.564c-0.17,-1.436 -0.581,-2.513 -1.23,-3.231c-0.65,-0.718 -1.675,-1.077 -3.077,-1.077c-4.034,-0 -7.556,2.444 -10.564,7.333l-0,42.462l-6.154,-0l-0,-53.846l5.231,-0l0.359,6.512c1.641,-2.324 3.393,-4.153 5.256,-5.487c1.863,-1.333 4.06,-2 6.59,-2c5.299,0 8.718,2.445 10.256,7.334c1.539,-2.394 3.222,-4.214 5.051,-5.462c1.83,-1.248 4.094,-1.872 6.795,-1.872Z" style="fill:#282a37;fill-rule:nonzero;"/><path d="M1182.31,23.986l9.385,-0l-1.488,26.051l-6.41,0l-1.487,-26.051Z" style="fill:#282a37;fill-rule:nonzero;"/><path d="M1272.11,79.678c-0,4.752 -1.231,8.615 -3.693,11.59c-2.461,2.974 -5.623,5.111 -9.487,6.41c-3.863,1.299 -8.017,1.949 -12.461,1.949l-17.59,-0l0,-70.462l15.846,0c6.838,0 12.598,1.368 17.282,4.103c4.684,2.735 7.026,7.265 7.026,13.59c-0,4.307 -1.257,7.76 -3.769,10.359c-2.513,2.598 -5.633,4.29 -9.359,5.076c4.718,0.821 8.598,2.547 11.641,5.18c3.042,2.632 4.564,6.701 4.564,12.205Zm-9.846,-32.718c-0,-8.034 -4.923,-12.051 -14.77,-12.051l-12.102,-0l-0,24.769l13.077,0c9.196,0 13.795,-4.239 13.795,-12.718Zm2.82,33.333c0,-5.367 -1.461,-9.111 -4.384,-11.23c-2.924,-2.12 -6.83,-3.18 -11.718,-3.18l-13.59,0l-0,27.846l13.282,0c4.479,0 8.333,-0.983 11.564,-2.948c3.231,-1.966 4.846,-5.462 4.846,-10.488Z" style="fill:#282a37;fill-rule:nonzero;"/><path d="M1325.44,44.704c1.265,-0 2.419,0.085 3.462,0.256c1.042,0.171 2.316,0.445 3.82,0.821l-0.718,16.923l-6.154,-0l0,-10.513l0.103,-1.333c-0.274,-0.035 -0.701,-0.052 -1.282,-0.052c-4.376,0 -8.077,1.496 -11.103,4.487c-3.025,2.992 -5.495,7.65 -7.41,13.975l0,25.025l11.077,0l-0,5.334l-26.205,-0l-0,-5.334l8.769,0l0,-43.128l-8.769,0l-0,-5.384l13.641,-0l1.179,12.923c2.257,-4.684 4.889,-8.188 7.898,-10.513c3.008,-2.325 6.906,-3.487 11.692,-3.487Z" style="fill:#282a37;fill-rule:nonzero;"/><path d="M1356.67,75.268c0.068,4.342 0.855,7.974 2.359,10.897c1.504,2.923 3.496,5.094 5.974,6.513c2.479,1.419 5.24,2.128 8.282,2.128c2.735,0 5.205,-0.393 7.411,-1.179c2.205,-0.787 4.572,-2.051 7.102,-3.795l3.333,4.769c-2.461,1.915 -5.256,3.402 -8.384,4.462c-3.128,1.06 -6.197,1.589 -9.205,1.589c-4.889,0 -9.12,-1.153 -12.693,-3.461c-3.572,-2.308 -6.299,-5.564 -8.179,-9.769c-1.88,-4.205 -2.821,-9.094 -2.821,-14.667c0,-5.436 0.949,-10.265 2.847,-14.487c1.897,-4.222 4.572,-7.522 8.025,-9.898c3.453,-2.376 7.402,-3.564 11.846,-3.564c4.308,0 8.035,1.052 11.18,3.154c3.145,2.103 5.547,5.111 7.205,9.026c1.658,3.914 2.487,8.538 2.487,13.872c0,0.786 -0.051,2.256 -0.154,4.41l-36.615,-0Zm16.051,-24.513c-2.974,0 -5.615,0.692 -7.923,2.077c-2.308,1.385 -4.162,3.479 -5.564,6.282c-1.402,2.803 -2.222,6.273 -2.462,10.41l30.616,0c-0.137,-6.154 -1.522,-10.82 -4.154,-14c-2.632,-3.179 -6.137,-4.769 -10.513,-4.769Z" style="fill:#282a37;fill-rule:nonzero;"/><path d="M1413.6,45.781l5.333,-0l0.513,7.846c1.368,-1.812 3.077,-3.385 5.128,-4.718c2.052,-1.333 4.214,-2.351 6.487,-3.051c2.274,-0.701 4.436,-1.052 6.488,-1.052c5.333,0 9.213,1.351 11.641,4.052c2.427,2.7 3.641,6.632 3.641,11.794l-0,38.975l-6.359,-0l-0,-32.154c-0,-4.513 -0.231,-7.957 -0.693,-10.333c-0.461,-2.376 -1.435,-4.146 -2.923,-5.308c-1.487,-1.162 -3.769,-1.744 -6.846,-1.744c-2.256,0 -4.436,0.496 -6.538,1.488c-2.103,0.991 -3.958,2.239 -5.564,3.743c-1.607,1.504 -2.923,3.043 -3.949,4.615l-0,39.693l-6.359,-0l-0,-53.846Z" style="fill:#282a37;fill-rule:nonzero;"/><path d="M1494.83,44.806c4.82,0 8.889,1.128 12.205,3.385c3.316,2.256 5.795,5.47 7.436,9.641c1.641,4.171 2.461,9.128 2.461,14.872c0,5.401 -0.846,10.213 -2.538,14.436c-1.692,4.222 -4.214,7.53 -7.564,9.923c-3.351,2.393 -7.402,3.589 -12.154,3.589c-4.821,0 -8.898,-1.153 -12.231,-3.461c-3.333,-2.308 -5.837,-5.547 -7.513,-9.718c-1.675,-4.171 -2.513,-9.06 -2.513,-14.667c0,-5.572 0.847,-10.461 2.539,-14.666c1.692,-4.206 4.222,-7.479 7.59,-9.821c3.367,-2.342 7.461,-3.513 12.282,-3.513Zm-0,5.59c-10.291,0 -15.436,7.47 -15.436,22.41c-0,14.804 5.094,22.205 15.282,22.205c10.188,0 15.282,-7.435 15.282,-22.307c-0,-14.872 -5.043,-22.308 -15.128,-22.308Z" style="fill:#282a37;fill-rule:nonzero;"/><rect x="1536.16" y="64.55" width="40.103" height="5.949" style="fill:#282a37;fill-rule:nonzero;"/><path d="M1602.21,36.088c-0.034,0.684 0.035,3.197 0.205,7.539c0.377,7.521 0.565,13.538 0.565,18.051l-0,37.949l-6.462,-0l0,-70.462l9.385,0l27.384,63.949c0.069,-0.41 0.06,-1.436 -0.025,-3.077c-0.086,-1.641 -0.146,-2.838 -0.18,-3.59c-0.034,-0.718 -0.137,-3.085 -0.308,-7.102c-0.17,-4.017 -0.256,-8.163 -0.256,-12.436l0,-37.744l6.462,0l-0,70.462l-10.103,-0l-26.667,-63.539Z" style="fill:#282a37;fill-rule:nonzero;"/><path d="M1679.44,44.806c4.821,0 8.889,1.128 12.205,3.385c3.316,2.256 5.795,5.47 7.436,9.641c1.641,4.171 2.462,9.128 2.462,14.872c-0,5.401 -0.846,10.213 -2.539,14.436c-1.692,4.222 -4.213,7.53 -7.564,9.923c-3.35,2.393 -7.402,3.589 -12.154,3.589c-4.82,0 -8.897,-1.153 -12.231,-3.461c-3.333,-2.308 -5.837,-5.547 -7.512,-9.718c-1.676,-4.171 -2.513,-9.06 -2.513,-14.667c-0,-5.572 0.846,-10.461 2.538,-14.666c1.693,-4.206 4.223,-7.479 7.59,-9.821c3.368,-2.342 7.462,-3.513 12.282,-3.513Zm0,5.59c-10.29,0 -15.436,7.47 -15.436,22.41c0,14.804 5.094,22.205 15.282,22.205c10.188,0 15.282,-7.435 15.282,-22.307c0,-14.872 -5.042,-22.308 -15.128,-22.308Z" style="fill:#282a37;fill-rule:nonzero;"/><path d="M1744.36,99.627l-7.333,-0l-19.795,-53.846l6.615,-0l17.129,47.384l16.769,-47.384l6.666,-0l-20.051,53.846Z" style="fill:#282a37;fill-rule:nonzero;"/><path d="M1787.44,75.268c0.068,4.342 0.855,7.974 2.359,10.897c1.504,2.923 3.496,5.094 5.974,6.513c2.479,1.419 5.24,2.128 8.282,2.128c2.736,0 5.206,-0.393 7.411,-1.179c2.205,-0.787 4.572,-2.051 7.102,-3.795l3.334,4.769c-2.462,1.915 -5.257,3.402 -8.385,4.462c-3.128,1.06 -6.197,1.589 -9.205,1.589c-4.889,0 -9.12,-1.153 -12.692,-3.461c-3.573,-2.308 -6.3,-5.564 -8.18,-9.769c-1.88,-4.205 -2.82,-9.094 -2.82,-14.667c-0,-5.436 0.948,-10.265 2.846,-14.487c1.897,-4.222 4.572,-7.522 8.025,-9.898c3.453,-2.376 7.402,-3.564 11.847,-3.564c4.307,0 8.034,1.052 11.179,3.154c3.145,2.103 5.547,5.111 7.205,9.026c1.658,3.914 2.487,8.538 2.487,13.872c0,0.786 -0.051,2.256 -0.154,4.41l-36.615,-0Zm16.051,-24.513c-2.974,0 -5.615,0.692 -7.923,2.077c-2.307,1.385 -4.162,3.479 -5.564,6.282c-1.401,2.803 -2.222,6.273 -2.461,10.41l30.615,0c-0.137,-6.154 -1.521,-10.82 -4.154,-14c-2.632,-3.179 -6.137,-4.769 -10.513,-4.769Z" style="fill:#282a37;fill-rule:nonzero;"/><path d="M1863.18,87.422c-0,2.666 0.846,4.615 2.538,5.846c1.692,1.231 4.009,1.846 6.949,1.846c3.008,-0 6.171,-0.65 9.487,-1.949l1.846,4.923c-1.47,0.752 -3.239,1.368 -5.307,1.846c-2.069,0.479 -4.283,0.718 -6.642,0.718c-2.871,0 -5.461,-0.521 -7.769,-1.564c-2.307,-1.042 -4.128,-2.564 -5.461,-4.564c-1.334,-2 -2,-4.367 -2,-7.102l-0,-57.898l-16.718,0l-0,-5.538l23.077,-0l-0,63.436Z" style="fill:#282a37;fill-rule:nonzero;"/><path d="M1924.72,87.422c0,2.666 0.846,4.615 2.539,5.846c1.692,1.231 4.008,1.846 6.948,1.846c3.009,-0 6.171,-0.65 9.488,-1.949l1.846,4.923c-1.47,0.752 -3.24,1.368 -5.308,1.846c-2.068,0.479 -4.282,0.718 -6.641,0.718c-2.872,0 -5.462,-0.521 -7.769,-1.564c-2.308,-1.042 -4.128,-2.564 -5.462,-4.564c-1.333,-2 -2,-4.367 -2,-7.102l0,-57.898l-16.718,0l0,-5.538l23.077,-0l0,63.436Z" style="fill:#282a37;fill-rule:nonzero;"/><path d="M1987.03,21.422c1.607,-0 2.897,0.487 3.872,1.461c0.974,0.975 1.461,2.18 1.461,3.616c0,1.538 -0.487,2.803 -1.461,3.794c-0.975,0.992 -2.265,1.488 -3.872,1.488c-1.539,-0 -2.786,-0.496 -3.744,-1.488c-0.957,-0.991 -1.436,-2.256 -1.436,-3.794c0,-1.436 0.488,-2.641 1.462,-3.616c0.974,-0.974 2.214,-1.461 3.718,-1.461Zm6,72.666l15.641,0l-0,5.539l-39.026,-0l0,-5.539l17.026,0l-0,-42.769l-16.513,0l0,-5.538l22.872,-0l-0,48.307Z" style="fill:#282a37;fill-rule:nonzero;"/><path d="M2043.85,23.986l9.385,-0l-1.487,26.051l-6.41,0l-1.488,-26.051Z" style="fill:#282a37;fill-rule:nonzero;"/></g><path d="M723.048,70.025l-0.001,-0l0,-51.924c0,-8.012 6.505,-14.516 14.517,-14.516c8.012,-0 14.516,6.504 14.516,14.516l0,12.113c-1.981,0.758 -3.929,1.683 -5.825,2.777c-3.958,2.286 -7.387,5.138 -10.243,8.396c1.847,-1.619 3.878,-3.081 6.085,-4.355c18.209,-10.513 41.528,-4.265 52.041,13.944c7.044,12.202 6.563,26.698 0,38.097l0,0.001l-20.518,35.538c-4.006,6.938 -12.891,9.319 -19.83,5.313c-6.938,-4.005 -9.319,-12.891 -5.313,-19.829l0.613,-1.061c2.095,0.333 4.244,0.507 6.433,0.507c4.568,-0 8.96,-0.755 13.06,-2.146c-15.566,3.093 -32.059,-3.822 -40.431,-18.323c-3.469,-6.008 -5.113,-12.571 -5.104,-19.048Zm38.418,-14.531c8.037,0 14.563,6.526 14.563,14.563c-0,8.038 -6.526,14.564 -14.563,14.564c-8.038,-0 -14.564,-6.526 -14.564,-14.564c0,-8.037 6.526,-14.563 14.564,-14.563Z" style="fill:#282a37;"/></g></svg>